<svg xmlns="http://www.w3.org/2000/svg" viewBox="0 0 512 512" width="512" height="512" role="img" aria-label="Snoekduik app-icoon"><title>Snoekduik app-icoon</title><rect width="512" height="512" rx="116" fill="#2E7D6B"/><g transform="translate(36,36) scale(3.14)"><path d="M 8 8 C 28 16 48 30 62 44 L 78 58 L 100 62 L 106 78 L 88 74 L 108 100 L 132 116 L 126 126 L 116 132 L 100 108 L 74 88 L 78 106 L 62 100 L 58 78 L 44 62 C 30 48 16 28 8 8 Z" fill="#F4F0E3"/><path d="M 10 6 C 26 16 40 28 52 40" fill="none" stroke="#2E7D6B" stroke-width="2.5" stroke-linecap="round"/><path d="M 46 26 C 40 34 36 40 32 48" fill="none" stroke="#2E7D6B" stroke-width="2" stroke-linecap="round"/><circle cx="33" cy="23" r="4.5" fill="#1B4B45"/></g></svg>
